{
    "accessors" : [
        {
            "bufferView" : 0,
            "componentType" : 5125,
            "count" : 482160,
            "max" : [
                482159
            ],
            "min" : [
                0
            ],
            "type" : "SCALAR"
        },
        {
            "bufferView" : 1,
            "componentType" : 5126,
            "count" : 482160,
            "max" : [
                128.0,
                30.0,
                -1.0
            ],
            "min" : [
                1.0,
                1.0,
                -128.0
            ],
            "type" : "VEC3"
        },
        {
            "bufferView" : 2,
            "componentType" : 5126,
            "count" : 482160,
            "max" : [
                1.0,
                1.0,
                1.0
            ],
            "min" : [
                -1.0,
                -1.0,
                -1.0
            ],
            "type" : "VEC3"
        },
        {
            "bufferView" : 3,
            "componentType" : 5126,
            "count" : 482160,
            "max" : [
                0.9215818608403176,
                0.723055143885277,
                1.0,
                1.0
            ],
            "min" : [
                0.1328683257311731,
                0.06124606022716437,
                0.046665086581566644,
                1.0
            ],
            "type" : "VEC4"
        }
    ],
    "asset" : {
        "generator" : "Khronos Blender glTF 2.0 exporter",
        "version" : "2.0"
    },
    "bufferViews" : [
        {
            "buffer" : 0,
            "byteLength" : 1928640,
            "byteOffset" : 0,
            "target" : 34963
        },
        {
            "buffer" : 0,
            "byteLength" : 5785920,
            "byteOffset" : 1928640,
            "target" : 34962
        },
        {
            "buffer" : 0,
            "byteLength" : 5785920,
            "byteOffset" : 7714560,
            "target" : 34962
        },
        {
            "buffer" : 0,
            "byteLength" : 7714560,
            "byteOffset" : 13500480,
            "target" : 34962
        }
    ],
    "buffers" : [
        {
            "byteLength" : 21215040,
            "uri" : "microstruct.bin"
        }
    ],
    "materials" : [
        {
            "name" : "Shape",
            "pbrMetallicRoughness" : {
                "baseColorFactor" : [
                    0.800000011920929,
                    0.800000011920929,
                    0.800000011920929,
                    1.0
                ],
                "metallicFactor" : 0.0
            }
        }
    ],
    "meshes" : [
        {
            "name" : "Shape_IndexedFaceSet",
            "primitives" : [
                {
                    "attributes" : {
                        "COLOR_0" : 3,
                        "NORMAL" : 2,
                        "POSITION" : 1
                    },
                    "indices" : 0,
                    "material" : 0
                }
            ]
        }
    ],
    "nodes" : [
        {
            "name" : "DirectLight",
            "rotation" : [
                -3.090862321641907e-08,
                0.7071067094802856,
                -0.7071068286895752,
                -3.0908616110991716e-08
            ]
        },
        {
            "name" : "DirectLight.001",
            "rotation" : [
                0.0,
                -4.371139183945161e-08,
                -0.0,
                1.0
            ],
            "scale" : [
                0.9999999403953552,
                0.9999999403953552,
                0.9999999403953552
            ]
        },
        {
            "name" : "DirectLight.002",
            "rotation" : [
                -4.2146840684154085e-08,
                8.65935419208522e-15,
                0.788205623626709,
                0.6154120564460754
            ],
            "scale" : [
                0.9999998807907104,
                0.9999998807907104,
                0.9999998807907104
            ]
        },
        {
            "name" : "DirectLight.003",
            "rotation" : [
                -0.245659738779068,
                0.4590193033218384,
                -0.752762496471405,
                0.4028662443161011
            ]
        },
        {
            "name" : "DirectLight.004",
            "rotation" : [
                0.2456597238779068,
                -0.4590194523334503,
                -0.752762496471405,
                0.40286630392074585
            ]
        },
        {
            "mesh" : 0,
            "name" : "Shape_IndexedFaceSet",
            "rotation" : [
                -3.090862321641907e-08,
                0.7071067094802856,
                -0.7071068286895752,
                -3.0908616110991716e-08
            ]
        },
        {
            "name" : "Viewpoint",
            "rotation" : [
                -0.10841543227434158,
                -0.13239015638828278,
                0.5537946224212646,
                0.8148806691169739
            ],
            "scale" : [
                0.9999999403953552,
                1.0,
                1.0
            ],
            "translation" : [
                -436.12298583984375,
                218.9219970703125,
                -153.00100708007812
            ]
        }
    ],
    "scene" : 0,
    "scenes" : [
        {
            "name" : "Scene",
            "nodes" : [
                5,
                4,
                3,
                2,
                1,
                0,
                6
            ]
        }
    ]
}
